<svg width="75" height="76" viewBox="0 0 75 76" fill="none" xmlns="http://www.w3.org/2000/svg">
<path d="M7.0514 26.1004L14.3025 23.8131L33.1637 38.9208L33.6182 38.7774L36.8616 16.697L44.1128 14.4097L39.1977 44.0969L45.9413 60.1545L39.5785 62.1616L32.8349 46.104L7.0514 26.1004Z" fill="white"/>
<path d="M50.593 20.0611H57.7486V51.1531C57.7486 54.4616 56.9715 57.393 55.4173 59.9475C53.863 62.4866 51.6779 64.487 48.8619 65.9489C46.0458 67.3954 42.745 68.1187 38.9595 68.1187C35.1894 68.1187 31.8963 67.3954 29.0803 65.9489C26.2642 64.487 24.0791 62.4866 22.5249 59.9475C20.9706 57.393 20.1935 54.4616 20.1935 51.1531V20.0611H27.326V50.576C27.326 52.715 27.7953 54.6155 28.734 56.2774C29.6881 57.9393 31.0346 59.2473 32.7734 60.2014C34.5123 61.1401 36.5743 61.6094 38.9595 61.6094C41.3601 61.6094 43.4298 61.1401 45.1687 60.2014C46.9229 59.2473 48.2617 57.9393 49.185 56.2774C50.1237 54.6155 50.593 52.715 50.593 50.576V20.0611Z" fill="white"/>
<path d="M15.1818 64.0533H61V70.9663H15.1818L15.1818 64.0533Z" fill="white"/>
</svg>
